# Blender v2.77 (sub 0) OBJ File: ''
# www.blender.org
mtllib Smart Bomb.mtl
o ShapeIndexedFaceSet.139
v -1.026848 0.584939 0.433342
v 0.001752 -1.195535 0.428657
v -0.001728 1.180435 0.434899
v -1.026848 0.584939 0.433342
v -1.025108 -0.603046 0.430221
v 0.001752 -1.195535 0.428657
v 1.026873 -0.600038 0.430215
v -0.001728 1.180435 0.434899
v 0.001752 -1.195535 0.428657
v 1.026873 -0.600038 0.430215
v 1.025133 0.587946 0.433337
v -0.001728 1.180435 0.434899
v 0.001752 -1.195535 0.428657
v -1.025108 -0.603046 0.430221
v -1.402791 -0.818464 -0.002341
v 0.001752 -1.195535 0.428657
v -1.402791 -0.818464 -0.002341
v 0.002383 -1.626396 -0.004474
v -1.025108 -0.603046 0.430221
v -1.026848 0.584939 0.433342
v -1.405163 0.801515 0.001915
v -1.025108 -0.603046 0.430221
v -1.405163 0.801515 0.001915
v -1.402791 -0.818464 -0.002341
v -0.002363 1.613563 0.004039
v -1.026848 0.584939 0.433342
v -0.001728 1.180435 0.434899
v -0.002363 1.613563 0.004039
v -1.405163 0.801515 0.001915
v -1.026848 0.584939 0.433342
v -0.001728 1.180435 0.434899
v 1.025133 0.587946 0.433337
v 1.402811 0.805631 0.001908
v -1.402791 -0.818464 -0.002341
v -1.405163 0.801515 0.001915
v 0.000000 -0.002167 -1.620202
v 0.000000 -0.002167 -1.620202
v 0.002383 -1.626396 -0.004474
v -1.402791 -0.818464 -0.002341
v -0.001728 1.180435 0.434899
v 1.402811 0.805631 0.001908
v -0.002363 1.613563 0.004039
v 0.000000 -0.002167 -1.620202
v 1.402811 0.805631 0.001908
v 1.405183 -0.814348 -0.002349
v 0.000000 -0.002167 -1.620202
v 1.405183 -0.814348 -0.002349
v 0.002383 -1.626396 -0.004474
v 0.000000 -0.002167 -1.620202
v -0.002363 1.613563 0.004039
v 1.402811 0.805631 0.001908
v 0.002383 -1.626396 -0.004474
v 1.405183 -0.814348 -0.002349
v 1.026873 -0.600038 0.430215
v 0.000000 -0.002167 -1.620202
v -1.405163 0.801515 0.001915
v -0.002363 1.613563 0.004039
v 1.405183 -0.814348 -0.002349
v 1.402811 0.805631 0.001908
v 1.026873 -0.600038 0.430215
v 0.002383 -1.626396 -0.004474
v 1.026873 -0.600038 0.430215
v 0.001752 -1.195535 0.428657
v 1.402811 0.805631 0.001908
v 1.025133 0.587946 0.433337
v 1.026873 -0.600038 0.430215
vt -0.2139 0.1328
vt 0.4658 1.2324
vt 0.4658 -0.2324
vt -0.2139 0.1328
vt -0.2139 0.8662
vt 0.4658 1.2324
vt 1.1465 0.8662
vt 0.4658 -0.2324
vt 0.4658 1.2324
vt 1.1465 0.8662
vt 1.1465 0.1328
vt 0.4658 -0.2324
vt 0.4146 0.3701
vt 0.0791 0.8950
vt 0.6317 0.3472
vt 0.4146 0.3701
vt 0.6317 0.3472
vt 0.2952 0.4313
vt 0.0791 0.8950
vt 0.2414 1.5448
vt 0.6749 1.7678
vt 0.0791 0.8950
vt 0.6749 1.7678
vt 0.6317 0.3472
vt 1.3737 1.9212
vt 0.2414 1.5448
vt 0.7456 1.6768
vt 1.3737 1.9212
vt 0.6749 1.7678
vt 0.2414 1.5448
vt 0.7456 1.6768
vt 1.0319 1.2956
vt 1.5916 1.6534
vt 0.9124 1.1031
vt 0.9124 1.1031
vt 1.7515 1.2026
vt 1.1411 0.4392
vt 1.3703 0.2160
vt 0.6317 0.3472
vt 0.7456 1.6768
vt 1.5916 1.6534
vt 1.3737 1.9212
vt 1.7515 1.2026
vt 1.9928 0.9519
vt 1.8717 0.7861
vt 1.7515 1.2026
vt 1.6724 0.3648
vt 1.3703 0.2160
vt 1.7515 1.2026
vt 1.3737 1.9212
vt 1.5916 1.6534
vt 1.3703 0.2160
vt 1.8717 0.7861
vt 0.9831 0.6300
vt 1.7515 1.2026
vt 0.6749 1.7678
vt 1.2334 1.6982
vt 1.8717 0.7861
vt 1.5916 1.6534
vt 0.9831 0.6300
vt 1.3703 0.2160
vt 0.9831 0.6300
vt 0.4146 0.3701
vt 1.5916 1.6534
vt 1.0319 1.2956
vt 0.9831 0.6300
vn 0.0000 -0.0026 1.0000
vn -0.3768 -0.6548 0.6551
vn -0.3768 -0.6570 0.6530
vn -0.7526 -0.0028 0.6585
vn -0.3798 0.6521 0.6561
vn -0.3779 0.6511 0.6582
vn 0.3768 0.6514 0.6586
vn -0.7557 0.0006 -0.6549
vn -0.3768 -0.6536 -0.6564
vn 0.3768 0.6536 0.6564
vn 0.7557 0.0028 -0.6549
vn 0.3787 -0.6524 -0.6564
vn 0.3768 0.6570 -0.6530
vn 0.3779 -0.6545 0.6548
vn -0.3787 0.6559 -0.6530
vn 0.7526 -0.0006 0.6585
vn 0.3798 -0.6556 0.6527
usemtl Material.001_43D1F4A2_c.png
s 1
f 1/1/1 2/2/1 3/3/1
f 4/4/1 5/5/1 6/6/1
f 7/7/1 8/8/1 9/9/1
f 10/10/1 11/11/1 12/12/1
usemtl Material.001_4B3AAC7D_c.png
f 13/13/2 14/14/2 15/15/2
f 16/16/3 17/17/3 18/18/3
f 19/19/4 20/20/4 21/21/4
f 22/22/4 23/23/4 24/24/4
f 25/25/5 26/26/5 27/27/5
f 28/28/6 29/29/6 30/30/6
f 31/31/7 32/32/7 33/33/7
f 34/34/8 35/35/8 36/36/8
f 37/37/9 38/38/9 39/39/9
f 40/40/10 41/41/10 42/42/10
f 43/43/11 44/44/11 45/45/11
f 46/46/12 47/47/12 48/48/12
f 49/49/13 50/50/13 51/51/13
f 52/52/14 53/53/14 54/54/14
f 55/55/15 56/56/15 57/57/15
f 58/58/16 59/59/16 60/60/16
f 61/61/17 62/62/17 63/63/17
f 64/64/16 65/65/16 66/66/16
